PathFileType	4	(X/Y/Z)	C:/Users/opensim2020/Desktop/walking_exp_matlab/subject03_walking09_straight_03.trc																																																																																																																																											
DataRate	CameraRate	NumFrames	NumMarkers	Units	OrigDataRate	OrigDataStartFrame	OrigNumFrames																																																																																																																																							
100	100	4	47	mm	100	3035	383																																																																																																																																							
Frame#	Time	LFHD			RFHD			LBHD			RBHD			C7			T10			CLAV			STRN			RBAK			LSHO			LUPA			LELB			LFRM			LWRA			LWRB			LFIN			RSHO			RUPA			RELB			RFRM			RWRA			RWRB			RFIN			LASI			RASI			LPSI			RPSI			LTHI			LKNE			LTIB			LANK			LHEE			LTOE			RTHI			RKNE			RTIB			RANK			RHEE			RTOE			*39			*40			*41			*42			*43			*44			*45			*46		
		X1	Y1	Z1	X2	Y2	Z2	X3	Y3	Z3	X4	Y4	Z4	X5	Y5	Z5	X6	Y6	Z6	X7	Y7	Z7	X8	Y8	Z8	X9	Y9	Z9	X10	Y10	Z10	X11	Y11	Z11	X12	Y12	Z12	X13	Y13	Z13	X14	Y14	Z14	X15	Y15	Z15	X16	Y16	Z16	X17	Y17	Z17	X18	Y18	Z18	X19	Y19	Z19	X20	Y20	Z20	X21	Y21	Z21	X22	Y22	Z22	X23	Y23	Z23	X24	Y24	Z24	X25	Y25	Z25	X26	Y26	Z26	X27	Y27	Z27	X28	Y28	Z28	X29	Y29	Z29	X30	Y30	Z30	X31	Y31	Z31	X32	Y32	Z32	X33	Y33	Z33	X34	Y34	Z34	X35	Y35	Z35	X36	Y36	Z36	X37	Y37	Z37	X38	Y38	Z38	X39	Y39	Z39	X40	Y40	Z40	X41	Y41	Z41	X42	Y42	Z42	X43	Y43	Z43	X44	Y44	Z44	X45	Y45	Z45	X46	Y46	Z46	X47	Y47	Z47
																																																																																																																																														
240	2.39	759.01495	1620.01233	-1033.30042	730.16785	1612.40723	-903.68762	633.0257	1579.1532	-1060.2052	609.81348	1571.30774	-931.86346	590.18628	1411.15125	-1014.30115	570.27698	1095.43616	-1017.98047	713.75708	1338.26648	-1004.9339	765.69666	1176.56885	-1012.86987	537.63214	1229.40393	-927.32678	682.90106	1377.48401	-1161.78748	702.49725	1180.47095	-1228.57825	724.85345	1058.31299	-1232.84277	770.84918	936.62677	-1219.96533	804.46289	825.77832	-1178.76123	788.31018	823.88275	-1232.3988	813.66284	744.25629	-1213.30225	654.4248	1355.57947	-848.27063	653.495	1130.21863	-783.89789	669.2428	1018.50574	-772.73145	685.29517	882.16443	-772.27344	719.04846	787.18323	-806.12726	683.362	782.19666	-765.63922	704.90497	710.3327	-774.36938	738.55292	928.27509	-1127.66614	740.62079	940.87927	-889.87439	577.97638	958.31824	-1076.77893	579.45508	971.31769	-928.07617	650.0451	626.31909	-1166.56665	624.71991	448.86517	-1139.82983	476.17984	311.34332	-1135.29187	343.39139	150.46249	-1090.63379	293.49789	151.73683	-1052.0437	428.7869	28.52694	-1052.39258	711.07184	646.47375	-852.98853	751.78271	470.83759	-894.15698	733.15057	282.28165	-893.69031	737.76489	67.25798	-946.10089	694.53345	35.65193	-997.9519	879.96179	33.176	-960.63519	667.86884	1677.54663	-996.01324	NaN	NaN	NaN	NaN	NaN	NaN	NaN	NaN	NaN	NaN	NaN	NaN	NaN	NaN	NaN	NaN	NaN	NaN	NaN	NaN	NaN
241	2.4	766.17572	1620.55603	-1032.74023	737.56744	1612.81165	-903.1673	640.22321	1579.54968	-1059.44531	617.14709	1571.62122	-931.23389	597.67078	1411.40259	-1013.41699	578.18445	1095.64148	-1016.28467	721.41742	1338.69006	-1004.43921	773.47949	1177.02856	-1012.51685	545.81244	1229.4353	-925.97589	690.11926	1377.8822	-1161.18445	709.33405	1180.86755	-1228.00977	730.69684	1058.54541	-1232.5166	775.56488	936.34741	-1220.52026	808.41376	825.02075	-1179.97717	791.77246	823.44879	-1233.48535	815.52948	742.97546	-1214.57813	662.73242	1355.93982	-847.60583	662.4743	1130.724	-782.7511	678.49799	1019.03387	-771.50635	695.25623	882.91241	-770.92889	729.44092	788.01727	-804.98126	693.92853	782.80621	-764.46417	715.93585	711.14728	-773.20929	745.83539	928.85052	-1127.14905	749.04126	940.80981	-889.44415	585.13147	958.59601	-1075.47266	587.78625	971.90137	-926.73621	661.29895	625.96167	-1167.25513	639.36108	447.87891	-1141.81738	489.06052	313.08945	-1136.55322	353.01016	155.27408	-1091.81714	303.40991	159.60019	-1053.04968	431.16483	29.55444	-1053.08191	716.54254	646.7655	-851.86182	756.89154	470.65927	-893.46289	736.40363	282.26617	-893.33704	737.76727	67.207	-946.13281	694.5517	35.7435	-997.901	880.0542	33.10435	-960.60333	675.07117	1677.9574	-995.16858	NaN	NaN	NaN	NaN	NaN	NaN	NaN	NaN	NaN	NaN	NaN	NaN	NaN	NaN	NaN	NaN	NaN	NaN	NaN	NaN	NaN
242	2.41	773.29425	1620.97876	-1032.26587	744.83759	1613.13599	-902.57568	647.38757	1579.78003	-1058.82654	624.50476	1571.73779	-930.51239	605.10266	1411.51538	-1012.44086	585.91785	1095.79248	-1014.62488	728.92603	1338.96216	-1003.9762	781.12488	1177.31445	-1012.23364	553.90442	1229.44763	-924.51666	697.08832	1378.06604	-1160.62146	715.95715	1181.02502	-1227.49731	736.54657	1058.56689	-1232.32349	780.36407	935.96191	-1221.10291	812.47076	824.14148	-1181.26233	795.41125	822.87708	-1234.69604	817.66443	741.79407	-1215.98181	670.95837	1356.16479	-846.94281	671.50616	1131.10876	-781.56396	687.94965	1019.47833	-770.23218	705.4577	883.45099	-769.65607	740.00714	788.78455	-803.80609	704.69818	783.33405	-763.12097	727.11353	711.91339	-771.87323	752.85022	929.22229	-1126.57593	757.23499	940.76953	-888.95911	592.3775	958.40887	-1074.23547	595.76709	972.32977	-925.60645	672.29749	625.64117	-1167.96484	654.14618	446.93933	-1143.48425	502.51038	314.53195	-1137.79407	363.12637	160.03641	-1092.84668	313.66519	167.42349	-1054.62549	433.81305	30.93939	-1053.33008	722.83093	646.93585	-850.67023	761.86975	470.51819	-892.68066	739.52277	282.23013	-893.00964	737.84467	67.17989	-946.18085	694.53577	35.78872	-997.81573	880.14746	33.04521	-960.58649	682.15015	1678.20789	-994.58447	NaN	NaN	NaN	NaN	NaN	NaN	NaN	NaN	NaN	NaN	NaN	NaN	NaN	NaN	NaN	NaN	NaN	NaN	NaN	NaN	NaN
243	2.42	780.36212	1621.32922	-1031.87268	752.2243	1613.41882	-902.14459	654.48242	1579.83374	-1058.20728	631.88245	1571.7417	-929.80945	612.54651	1411.66235	-1011.55951	593.45453	1095.87048	-1013.13928	736.38623	1339.08716	-1003.56824	788.62769	1177.42029	-1012.01587	561.82684	1229.51221	-922.95947	703.8374	1378.10339	-1160.07532	722.40021	1181.03833	-1227.03125	742.4231	1058.573	-1232.30396	785.18237	935.50409	-1221.82813	816.64996	823.19238	-1182.75977	799.15588	822.3858	-1236.12207	820.104	740.61737	-1217.49487	679.1319	1356.255	-846.26697	680.62689	1131.34167	-780.44244	697.5213	1019.80658	-768.99353	715.7821	883.87439	-768.38928	750.77802	789.4812	-802.69177	715.6402	783.78864	-761.75616	738.55225	712.57648	-770.62592	759.75714	929.26337	-1126.12488	765.22656	940.71558	-888.50104	599.39276	958.10242	-1073.23621	603.50177	972.62988	-924.61615	683.04944	625.03662	-1168.86865	669.1853	446.02972	-1145.12244	516.48682	315.84552	-1139.20081	373.77444	165.54733	-1094.13	324.02921	175.2372	-1056.16821	438.83801	33.91913	-1054.24097	729.27716	647.22375	-849.60455	766.68524	470.33209	-891.92725	742.42822	282.11987	-892.70361	737.89032	67.21687	-946.26062	694.54633	35.85355	-997.75757	880.21381	33.00581	-960.56494	689.11981	1678.35107	-993.9884	NaN	NaN	NaN	NaN	NaN	NaN	NaN	NaN	NaN	NaN	NaN	NaN	NaN	NaN	NaN	NaN	NaN	NaN	NaN	NaN	NaN
